<svg width="20.000000" height="16.000000" viewBox="0 0 20 16" fill="none" xmlns="http://www.w3.org/2000/svg" xmlns:xlink="http://www.w3.org/1999/xlink">
	<desc>
			Created with Pixso.
	</desc>
	<defs/>
	<path id="Vector" d="M2 16C1.44 16 0.97 15.8 0.58 15.41C0.19 15.02 0 14.55 0 14L0 2C0 1.45 0.19 0.97 0.58 0.58C0.97 0.19 1.45 0 2 0L18 0C18.54 0 19.02 0.19 19.41 0.58C19.8 0.97 20 1.45 20 2L20 14C20 14.54 19.8 15.02 19.41 15.41C19.02 15.8 18.55 16 18 16L2 16ZM10 9L18 4L18 2L10 7L2 2L2 4L10 9Z" fill="#4D535F" fill-opacity="1.000000" fill-rule="nonzero"/>
</svg>
