<svg width="24.000000" height="24.000000" viewBox="0 0 24 24" fill="none" xmlns="http://www.w3.org/2000/svg" xmlns:xlink="http://www.w3.org/1999/xlink">
	<desc>
			Created with Pixso.
	</desc>
	<defs>
		<clipPath id="clip215_24422">
			<rect id="logos:google-icon" rx="0.000000" width="23.000000" height="23.000000" transform="translate(0.500000 0.500000)" fill="white" fill-opacity="0"/>
		</clipPath>
	</defs>
	<rect id="logos:google-icon" rx="0.000000" width="23.000000" height="23.000000" transform="translate(0.500000 0.500000)" fill="#FFFFFF" fill-opacity="0"/>
	<g clip-path="url(#clip215_24422)">
		<path id="Vector" d="M23.98 12.22C23.98 11.24 23.9 10.52 23.72 9.77L12.23 9.77L12.23 14.21L18.98 14.21C18.84 15.32 18.11 16.98 16.48 18.09L16.45 18.24L20.08 20.99L20.34 21.02C22.65 18.93 23.98 15.86 23.98 12.22Z" fill="#4285F4" fill-opacity="1.000000" fill-rule="nonzero"/>
		<path id="Vector" d="M12.23 23.91C15.54 23.91 18.31 22.85 20.34 21.02L16.48 18.09C15.44 18.8 14.06 19.29 12.23 19.29C9 19.29 6.25 17.2 5.27 14.32L5.13 14.33L1.35 17.19L1.3 17.32C3.32 21.23 7.45 23.91 12.23 23.91Z" fill="#34A853" fill-opacity="1.000000" fill-rule="nonzero"/>
		<path id="Vector" d="M5.27 14.32C5.02 13.57 4.87 12.78 4.87 11.95C4.87 11.13 5.02 10.33 5.26 9.59L5.25 9.43L1.43 6.53L1.3 6.59C0.48 8.21 0 10.03 0 11.95C0 13.88 0.48 15.7 1.3 17.32L5.27 14.32Z" fill="#FBBC05" fill-opacity="1.000000" fill-rule="nonzero"/>
		<path id="Vector" d="M12.23 4.62C14.53 4.62 16.08 5.59 16.96 6.4L20.42 3.1C18.3 1.18 15.54 0 12.23 0C7.45 0 3.32 2.68 1.3 6.59L5.26 9.59C6.25 6.7 9 4.62 12.23 4.62Z" fill="#EB4335" fill-opacity="1.000000" fill-rule="nonzero"/>
	</g>
</svg>
